<svg xmlns="http://www.w3.org/2000/svg" width="43" height="13" viewBox="0 0 43 13">
  <g fill="none" fill-rule="evenodd" transform="translate(.4)">
    <polygon fill="#FEC10E" points="10.485 0 14.686 6.071 18.887 0"/>
    <path fill="#231F20" d="M5.16515721,3.24186295 L9.9224806e-06,12.5446847 L2.55207194,12.5446847 L3.45878822,10.6832273 L7.90018977,10.6832273 L8.84480992,12.5446847 L11.3815913,12.5446847 L6.17080062,3.24186295 L5.16515721,3.24186295 Z M5.6679293,6.04794047 L7.22218667,9.04115597 L4.11387039,9.04115597 L5.6679293,6.04794047 Z"/>
    <polygon fill="#231F20" points="17.054 12.545 14.656 9.51 12.619 12.545 10.041 12.545 13.51 7.779 10.22 3.224 12.715 3.224 14.686 6.071 16.657 3.224 19.137 3.224 15.78 7.779 19.684 12.545"/>
    <g fill="#231F20" transform="translate(19.15 2.993)">
      <path d="M9.02107287 5.55823628L2.36685891 5.55823628C2.40684651 6.32236651 2.67167752 6.90947969 3.16125271 7.31907969 3.62572403 7.71379597 4.24796279 7.91105488 5.02707597 7.91105488 6.01634729 7.91105488 6.77055504 7.65148279 7.29019535 7.13184248L8.12953798 8.79524713C7.36530853 9.41460837 6.22352868 9.72399132 4.70489302 9.72399132 3.25105116 9.72399132 2.11472868 9.2971262 1.29523101 8.44309829.491013953 7.60375566.088855814 6.45493085.088855814 4.99612775.088855814 3.61263628.513537984 2.45378977 1.36290233 1.51948899 2.23707287.545299845 3.35603101.0584037209 4.71977674.0584037209 6.02884961.0584037209 7.09789767.443197519 7.92702016 1.21228899 8.7763845 2.00648434 9.20106667 3.05290915 9.20106667 4.35186109 9.20106667 4.61659287 9.14103566 5.01875101 9.02107287 5.55823628M2.44187287 3.92459907L7.02050233 3.92459907C6.87057364 2.56105178 6.11616744 1.87917891 4.75738295 1.87917891 3.51340155 1.87917891 2.74153178 2.56105178 2.44187287 3.92459907M9.61622326 8.95261767L10.3881922 7.2219386C11.0426791 7.73612155 11.7770419 7.9935107 12.5910822 7.9935107 13.4405457 7.9935107 13.8649302 7.69147039 13.8649302 7.08669519 13.8649302 6.66727194 13.6452465 6.30758202 13.2056806 6.00782388 13.0057426 5.86811535 12.6012031 5.67065798 11.9918636 5.41594791 10.3830326 4.75134016 9.57871628 3.81981767 9.57871628 2.62088434 9.57871628 1.76179597 9.92590388 1.10482853 10.6203783.650180465 11.2150326.25576186 11.9616992.0584037209 12.8608744.0584037209 13.8303008.0584037209 14.7418791.275706047 15.5962047.710409922L14.9668217 2.40368124C14.4921302 1.99388279 13.8303008 1.78918202 12.980738 1.78918202 12.2216682 1.78918202 11.8418357 2.09152 11.8418357 2.69589829 11.8418357 3.01569984 12.1066667 3.31783938 12.6363287 3.60251535 12.8011411 3.69757271 13.1955597 3.86724713 13.8201798 4.11203473 15.3588589 4.71680992 16.1281488 5.66053705 16.1281488 6.94450605 16.1281488 7.88843163 15.753476 8.6079107 15.004031 9.10244713 14.3647256 9.5171076 13.5456248 9.72399132 12.5463318 9.72399132 11.9318326 9.72399132 11.4246946 9.66912 11.0249178 9.55917891 10.6602667 9.45975566 10.1907349 9.2575355 9.61622326 8.95261767M16.5358933 8.95261767L17.3077631 7.2219386C17.9622499 7.73612155 18.6966127 7.9935107 19.5107522 7.9935107 20.3601166 7.9935107 20.7846003 7.69147039 20.7846003 7.08669519 20.7846003 6.66727194 20.5649166 6.30758202 20.1252515 6.00782388 19.9254127 5.86811535 19.520774 5.67065798 18.9114344 5.41594791 17.3027026 4.75134016 16.4982871 3.81981767 16.4982871 2.62088434 16.4982871 1.76179597 16.845574 1.10482853 17.5399491.650180465 18.1346034.25576186 18.8812701.0584037209 19.7804453.0584037209 20.7498716.0584037209 21.6614499.275706047 22.5158747.710409922L21.8863926 2.40368124C21.4117011 1.99388279 20.7498716 1.78918202 19.9004081 1.78918202 19.1413383 1.78918202 18.7614065 2.09152 18.7614065 2.69589829 18.7614065 3.01569984 19.0262375 3.31783938 19.5558995 3.60251535 19.7207119 3.69757271 20.1151305 3.86724713 20.7397507 4.11203473 22.278529 4.71680992 23.0477197 5.66053705 23.0477197 6.94450605 23.0477197 7.88843163 22.6730468 8.6079107 21.9237011 9.10244713 21.2842964 9.5171076 20.4651957 9.72399132 19.4659026 9.72399132 18.8514034 9.72399132 18.3443647 9.66912 17.9445879 9.55917891 17.5799367 9.45975566 17.110405 9.2575355 16.5358933 8.95261767"/>
    </g>
  </g>
</svg>
